<svg width="462" height="520" viewBox="0 0 462 520" fill="none" xmlns="http://www.w3.org/2000/svg">
<path d="M11.2 380.486C11.2 431.286 43.2 481.286 107.2 481.286C143.2 481.286 164.8 455.286 170.4 439.286C172.8 432.486 172 432.086 166 427.286C163.6 425.286 162.4 424.486 161.2 424.486C159.6 424.486 158 425.686 155.6 428.486C149.2 435.286 138.8 438.886 128.4 438.886C103.6 438.886 74.4 420.886 74.4 363.686C74.4 347.286 78.8 298.086 104 298.086C136.4 298.086 114.4 353.686 154 353.686C193.6 353.686 176 277.286 107.6 277.286C42.8 277.286 11.2 330.086 11.2 380.486ZM188.45 299.286C208.45 312.886 209.65 314.486 217.65 337.286L266.45 474.886C268.45 480.086 268.85 480.486 274.45 480.486H279.65C285.25 480.486 285.65 480.086 287.25 474.886L336.45 324.886C340.85 312.086 340.85 311.286 352.05 303.686L359.65 298.486C363.65 295.686 363.65 295.686 363.65 290.886C363.65 281.686 363.25 281.286 354.05 281.286H311.25C304.45 281.286 304.05 281.286 304.05 288.086V290.886C304.05 295.286 304.05 295.686 307.25 298.486C320.45 309.686 320.45 310.886 314.85 327.286L297.65 377.686C294.85 385.686 294.85 385.686 292.05 377.686L272.85 322.086C269.25 311.686 269.65 311.686 277.25 303.686L282.45 298.086C285.25 295.286 285.25 295.286 285.25 291.286C285.25 281.686 284.85 281.286 275.25 281.286H190.45C183.65 281.286 183.25 281.286 183.25 288.486V289.286C183.25 295.686 183.25 295.686 188.45 299.286ZM379.625 451.686C379.625 470.486 394.825 485.686 413.625 485.686C432.425 485.686 447.625 470.486 447.625 451.686C447.625 432.886 432.425 417.686 413.625 417.686C394.825 417.686 379.625 432.886 379.625 451.686Z" fill="black"/>
<path d="M170.4 207.572L175.971 209.801L175.971 209.801L170.4 207.572ZM166 195.572L169.748 190.887L169.675 190.828L169.6 190.772L166 195.572ZM155.2 196.772L159.443 201.015L159.443 201.015L155.2 196.772ZM74.8 160.772L80.7437 159.952L80.7262 159.825L80.7032 159.699L74.8 160.772ZM81.6 151.572L81.6556 145.572L81.6278 145.572H81.6V151.572ZM74.8 124.372L68.8447 123.641L68.8365 123.708L68.8298 123.775L74.8 124.372ZM120.4 78.3722L114.917 80.8091L114.922 80.8199L120.4 78.3722ZM89.6 126.772L88.0369 120.979L88.0291 120.982L88.0213 120.984L89.6 126.772ZM80.8 129.172L82.3787 134.961L82.3787 134.961L80.8 129.172ZM5.2 149.572C5.2 175.941 13.3524 202.373 30.0488 222.323C46.86 242.411 72.0571 255.572 105.2 255.572V243.572C75.5429 243.572 53.74 231.934 39.2513 214.621C24.6476 197.172 17.2 173.604 17.2 149.572H5.2ZM105.2 255.572C144.231 255.572 168.895 227.49 175.971 209.801L164.829 205.344C159.105 219.654 138.169 243.572 105.2 243.572V255.572ZM175.971 209.801C178.917 202.436 174.929 195.032 169.748 190.887L162.252 200.257C165.071 202.513 165.083 204.708 164.829 205.344L175.971 209.801ZM169.6 190.772C168.119 189.661 165.437 187.572 161.6 187.572V199.572C161.486 199.572 161.357 199.556 161.235 199.525C161.122 199.496 161.075 199.468 161.117 199.489C161.167 199.514 161.288 199.58 161.515 199.733C161.745 199.888 162.02 200.087 162.4 200.372L169.6 190.772ZM161.6 187.572C156.916 187.572 153.474 190.013 150.957 192.53L159.443 201.015C160.182 200.275 160.699 199.913 161.034 199.737C161.312 199.592 161.463 199.572 161.6 199.572V187.572ZM150.957 192.53C145.112 198.375 135.565 201.972 125.2 201.972V213.972C138.035 213.972 150.888 209.569 159.443 201.015L150.957 192.53ZM125.2 201.972C115.502 201.972 105.499 199.186 97.4512 192.739C89.4938 186.365 82.9607 176.026 80.7437 159.952L68.8563 161.592C71.4393 180.319 79.3062 193.58 89.9488 202.105C100.501 210.558 113.298 213.972 125.2 213.972V201.972ZM80.7032 159.699C80.5814 159.029 80.7582 158.339 81.0484 157.915C81.1763 157.729 81.2855 157.652 81.3349 157.624C81.3663 157.607 81.4311 157.572 81.6 157.572V145.572C76.9903 145.572 73.3329 147.948 71.1516 151.129C69.0418 154.206 68.2186 158.116 68.8968 161.846L80.7032 159.699ZM81.5445 157.572C114.676 157.879 139.056 151.353 155.464 140.742C171.995 130.052 180.35 115.214 180.847 99.8157C181.84 69.0279 152.036 40.7722 107.6 40.7722V52.7722C147.564 52.7722 169.56 77.5166 168.853 99.4288C168.5 110.381 162.63 121.817 148.948 130.665C135.144 139.592 113.324 145.866 81.6556 145.572L81.5445 157.572ZM107.6 40.7722C73.8185 40.7722 48.0314 54.4637 30.7926 75.1288C13.6663 95.6591 5.2 122.779 5.2 149.572H17.2C17.2 125.166 24.9337 100.885 40.0074 82.8157C54.9686 64.8808 77.3815 52.7722 107.6 52.7722V40.7722ZM80.7553 125.104C82.1407 113.822 84.5693 99.8545 88.9709 88.8506C93.6003 77.2769 99.1203 71.9722 105.2 71.9722V59.9722C90.8797 59.9722 82.5997 72.4676 77.8291 84.3939C72.8307 96.8899 70.2593 112.122 68.8447 123.641L80.7553 125.104ZM105.2 71.9722C108.802 71.9722 112.056 74.3714 114.917 80.8091L125.883 75.9354C122.344 67.9731 115.998 59.9722 105.2 59.9722V71.9722ZM114.922 80.8199C121.256 94.9957 111.149 114.743 88.0369 120.979L91.1631 132.565C118.451 125.202 136.344 99.3487 125.878 75.9246L114.922 80.8199ZM88.0213 120.984L79.2213 123.384L82.3787 134.961L91.1787 132.561L88.0213 120.984ZM79.2213 123.384C78.6029 123.552 78.4187 123.508 78.5563 123.522C78.7468 123.541 79.3049 123.657 79.8859 124.151C80.4639 124.642 80.6783 125.179 80.7374 125.396C80.7838 125.565 80.7206 125.465 80.7702 124.969L68.8298 123.775C68.5496 126.577 68.9026 130.564 72.1141 133.294C75.3431 136.039 79.4093 135.771 82.3787 134.961L79.2213 123.384ZM355.528 233.172L361.464 234.045L361.47 234.004L361.476 233.962L355.528 233.172ZM363.128 175.972L369.076 176.762L369.079 176.739L369.082 176.716L363.128 175.972ZM337.128 173.972L341.716 177.838L341.718 177.837L337.128 173.972ZM300.728 217.172L305.308 221.048L305.316 221.038L300.728 217.172ZM269.528 215.572L264.31 212.61L264.308 212.614L269.528 215.572ZM356.728 61.9722L361.946 64.9344L361.948 64.9303L356.728 61.9722ZM229.528 115.972L234.237 119.69L234.252 119.671L234.267 119.652L229.528 115.972ZM258.728 78.3722L254.003 74.6744L253.996 74.6832L253.989 74.6921L258.728 78.3722ZM284.328 79.1722L289.539 82.1462L289.551 82.1251L289.563 82.1039L284.328 79.1722ZM195.528 234.772L190.317 231.798L190.312 231.806L190.308 231.814L195.528 234.772ZM202.728 253.172H339.528V241.172H202.728V253.172ZM339.528 253.172C342.83 253.172 345.807 253.156 348.236 252.85C350.712 252.538 353.499 251.833 355.837 249.781C358.161 247.741 359.232 245.075 359.886 242.674C360.531 240.307 360.979 237.345 361.464 234.045L349.592 232.299C349.077 235.799 348.725 237.988 348.308 239.52C347.899 241.019 347.646 241.004 347.919 240.764C348.207 240.511 348.219 240.757 346.733 240.944C345.199 241.138 343.027 241.172 339.528 241.172V253.172ZM361.476 233.962L369.076 176.762L357.18 175.182L349.58 232.382L361.476 233.962ZM369.082 176.716C369.37 174.409 369.636 172.145 369.602 170.252C369.569 168.397 369.253 165.595 367.137 163.303C365.069 161.062 362.342 160.474 360.536 160.236C358.649 159.988 356.338 159.972 353.928 159.972V171.972C356.518 171.972 358.008 172.007 358.97 172.133C360.014 172.271 359.187 172.382 358.319 171.442C357.404 170.45 357.588 169.547 357.604 170.468C357.62 171.35 357.486 172.736 357.174 175.228L369.082 176.716ZM353.928 159.972C349.333 159.972 345.19 159.951 341.545 161.731C337.989 163.468 335.397 166.713 332.539 170.107L341.718 177.837C345.259 173.631 346.067 172.877 346.811 172.514C347.466 172.194 348.524 171.972 353.928 171.972V159.972ZM332.54 170.106L296.14 213.306L305.316 221.038L341.716 177.838L332.54 170.106ZM296.148 213.297C291.464 218.832 289.945 220.31 288.391 221.035C286.848 221.755 284.755 221.972 277.528 221.972V233.972C283.902 233.972 289.008 233.989 293.465 231.909C297.911 229.835 301.192 225.912 305.308 221.048L296.148 213.297ZM277.528 221.972C273.826 221.972 271.477 221.939 269.932 221.762C269.173 221.674 268.96 221.586 269.037 221.616C269.144 221.657 269.943 221.988 270.594 222.98C271.279 224.024 271.279 224.995 271.25 225.313C271.229 225.542 271.199 225.438 271.451 224.811C271.966 223.53 272.996 221.623 274.748 218.53L264.308 212.614C262.661 215.521 261.19 218.164 260.318 220.333C259.643 222.011 258.194 225.957 260.562 229.564C261.738 231.357 263.393 232.3 264.715 232.81C266.006 233.309 267.364 233.545 268.561 233.683C270.93 233.955 274.03 233.972 277.528 233.972V221.972ZM274.746 218.534L361.946 64.9344L351.51 59.01L264.31 212.61L274.746 218.534ZM361.948 64.9303C363.588 62.0368 365.055 59.4398 365.957 57.3478C366.413 56.2902 366.877 55.0248 367.082 53.6803C367.293 52.2997 367.297 50.3775 366.277 48.4573C365.235 46.4964 363.592 45.4104 362.221 44.8204C360.923 44.2615 359.564 44.01 358.426 43.8682C356.173 43.5876 353.213 43.5722 349.928 43.5722V55.5722C351.628 55.5722 353.044 55.5787 354.244 55.6107C355.457 55.6431 356.323 55.699 356.943 55.7762C357.611 55.8594 357.687 55.933 357.477 55.8428C357.196 55.7216 356.296 55.248 355.679 54.0872C355.084 52.9669 355.195 52.0322 355.219 51.8704C355.239 51.7447 355.225 51.9292 354.937 52.5967C354.667 53.2233 354.257 54.0463 353.663 55.1497C353.074 56.2435 352.362 57.5078 351.508 59.0142L361.948 64.9303ZM349.928 43.5722H217.528V55.5722H349.928V43.5722ZM217.528 43.5722C214.13 43.5722 211.079 43.588 208.63 43.8933C206.205 44.1954 203.237 44.8926 200.894 47.1719C198.521 49.4803 197.779 52.4432 197.461 54.8655C197.143 57.2827 197.128 60.2809 197.128 63.5722H209.128C209.128 60.0636 209.163 57.9118 209.358 56.429C209.552 54.9512 209.785 55.2642 209.262 55.7726C208.77 56.2519 208.526 55.999 210.114 55.8012C211.677 55.6064 213.926 55.5722 217.528 55.5722V43.5722ZM197.128 63.5722V113.972H209.128V63.5722H197.128ZM197.128 113.972C197.128 116.284 197.143 118.528 197.395 120.388C197.646 122.251 198.252 124.781 200.285 126.815C202.319 128.848 204.85 129.454 206.712 129.706C208.573 129.957 210.816 129.972 213.128 129.972V117.972C210.64 117.972 209.234 117.937 208.319 117.814C207.407 117.69 208.037 117.596 208.771 118.33C209.504 119.063 209.41 119.694 209.287 118.781C209.163 117.867 209.128 116.46 209.128 113.972H197.128ZM213.128 129.972C217.693 129.972 221.886 130.001 225.511 128.189C229.085 126.402 231.577 123.06 234.237 119.69L224.819 112.254C221.479 116.485 220.771 117.143 220.145 117.456C219.57 117.743 218.563 117.972 213.128 117.972V129.972ZM234.267 119.652L263.467 82.0524L253.989 74.6921L224.789 112.292L234.267 119.652ZM263.453 82.0701C265.305 79.7045 266.512 78.1753 267.539 77.065C268.513 76.012 269.048 75.6492 269.405 75.4668C270.303 75.0085 271.664 74.7722 277.928 74.7722V62.7722C272.592 62.7722 267.953 62.736 263.951 64.7777C261.859 65.8453 260.218 67.3074 258.73 68.917C257.294 70.4691 255.752 72.44 254.003 74.6744L263.453 82.0701ZM277.928 74.7722C279.425 74.7722 280.667 74.7787 281.717 74.8068C282.78 74.8353 283.529 74.8835 284.057 74.9475C284.313 74.9785 284.468 75.0075 284.546 75.025C284.628 75.0434 284.574 75.0378 284.433 74.9803C284.155 74.8667 283.242 74.4212 282.566 73.281C281.885 72.1312 281.931 71.0961 281.972 70.7597C281.993 70.5943 282.017 70.5309 281.997 70.599C281.978 70.6632 281.932 70.7998 281.838 71.0259C281.643 71.4938 281.331 72.1396 280.851 73.0467C280.376 73.9435 279.796 74.9848 279.093 76.2406L289.563 82.1039C290.901 79.7156 292.154 77.4708 292.919 75.6311C293.307 74.6976 293.726 73.511 293.884 72.2145C294.05 70.8546 293.971 68.9883 292.89 67.1634C291.814 65.3483 290.226 64.384 288.973 63.872C287.769 63.38 286.527 63.1589 285.499 63.0345C283.468 62.7885 280.827 62.7722 277.928 62.7722V74.7722ZM279.117 76.1983L190.317 231.798L200.739 237.746L289.539 82.1462L279.117 76.1983ZM190.308 231.814C188.671 234.704 187.198 237.31 186.299 239.414C185.844 240.477 185.379 241.761 185.185 243.131C184.985 244.551 185.02 246.497 186.099 248.414C187.185 250.344 188.846 251.39 190.202 251.954C191.5 252.493 192.862 252.739 194.021 252.879C196.317 253.156 199.34 253.172 202.728 253.172V241.172C200.979 241.172 199.517 241.166 198.276 241.134C197.022 241.101 196.117 241.045 195.46 240.966C194.757 240.881 194.637 240.802 194.807 240.872C195.035 240.967 195.922 241.4 196.558 242.531C197.186 243.648 197.096 244.606 197.068 244.807C197.046 244.958 197.05 244.792 197.333 244.131C197.597 243.512 198.003 242.694 198.595 241.592C199.183 240.5 199.894 239.237 200.748 237.73L190.308 231.814Z" fill="#F67777"/>
</svg>
